<?xml version="1.0" encoding="UTF-8"?>
<!DOCTYPE svg PUBLIC "-//W3C//DTD SVG 1.1//EN" "http://www.w3.org/Graphics/SVG/1.1/DTD/svg11.dtd">
<!-- Creator: CorelDRAW 2020 (64-Bit) -->
<svg xmlns="http://www.w3.org/2000/svg" xml:space="preserve" width="13.602cm" height="11.102cm" version="1.1" style="shape-rendering:geometricPrecision; text-rendering:geometricPrecision; image-rendering:optimizeQuality; fill-rule:evenodd; clip-rule:evenodd"
viewBox="0 0 13602 11102"
 xmlns:xlink="http://www.w3.org/1999/xlink"
 xmlns:xodm="http://www.corel.com/coreldraw/odm/2003">
 <defs>
  <style type="text/css">
   <![CDATA[
    .str0 {stroke:#8C8C29;stroke-width:20;stroke-miterlimit:22.9256}
    .str1 {stroke:#8C8C29;stroke-width:7.62;stroke-miterlimit:22.9256}
    .fil0 {fill:#000282}
    .fil1 {fill:#8C8C29}
    .fil2 {fill:#8C8C29;fill-rule:nonzero}
   ]]>
  </style>
 </defs>
 <g id="Capa_x0020_1">
  <metadata id="CorelCorpID_0Corel-Layer"/>
  <g id="_2567345839424">
   <polygon class="fil0" points="-19.32,24.55 13582.77,24.55 13582.77,11126.75 -19.32,11126.75 "/>
   <path class="fil1 str0" d="M4235.18 481.28l-3582.66 0.01 0 553c768.05,18.8 1174.17,-114.25 1212.2,563.49l6.38 7753.61c19.42,493.44 -132.48,710.07 -506.59,709.26l-711.99 12.37 0 558.12 3582.66 -0.01 0 -558.12c-504.27,0 -924.64,50.93 -1119.23,-95.4 -200.38,-150.68 -193.08,-395.09 -194.54,-616.44l-0.58 -5126.65 3900.64 0 -1.26 2043.11c1.01,227.38 -34.49,409.4 -123.33,525.12 -74.34,96.86 -174.94,121.16 -344.95,139.06l-834.2 16.75 0 558.11 3582.65 0 0 -558.11c-472.04,21.5 -813.98,18.15 -1017.37,-86.16 -209.98,-107.7 -188.66,-331.22 -209.69,-557.17l3.73 -4709.72c-2.29,-450.47 153.34,-554.38 621.28,-567.98l602.05 -3.25 0 -553 -3582.65 0.01 0 553c774.47,-15.01 1273.13,-85.32 1294.39,530.95l9.35 2111.16 -3900.64 0 1.99 -1989.47c13.6,-697.98 269.21,-654.92 1312.36,-652.65l0 -553z"/>
   <path class="fil2 str1" d="M5626.28 8225.34c0,-49.58 -9.43,-96.64 -28.03,-141.19 -18.62,-44.54 -45.47,-84.29 -80.31,-119.02 -34.15,-34.5 -73.49,-60.76 -118.24,-79.27 -44.97,-18.5 -92.32,-27.88 -141.77,-27.88 -49.7,0 -97.04,9.14 -142.03,27.43 -44.74,18.27 -84.78,44.77 -119.63,79.72 -34.86,34.27 -61.71,73.79 -80.07,118.34 -18.38,44.54 -27.57,91.83 -27.57,141.87 0,49.57 9.19,96.4 27.57,140.49 18.36,44.09 45.21,83.61 80.07,118.34 34.85,34.95 74.66,61.45 119.4,79.73 44.52,18.27 92.09,27.41 142.26,27.41 49.22,0 95.85,-9.14 140.37,-27.41 44.27,-18.28 84.3,-44.78 119.64,-79.73 34.84,-34.73 61.69,-74.25 80.31,-118.57 18.6,-44.55 28.03,-91.15 28.03,-140.26zm170.98 0c0,69.67 -13.43,135.46 -40.27,197.38 -27.09,62.13 -66.18,117.42 -117.77,166.08 -51.82,48.66 -110.45,85.9 -175.93,111.71 -65.23,25.81 -133.77,38.84 -205.36,38.84 -72.78,0 -142.03,-13.03 -208.2,-39.06 -65.95,-26.28 -124.12,-63.29 -174.75,-111.49 -51.58,-48.66 -90.67,-103.72 -117.29,-165.4 -26.62,-61.45 -40.04,-127.47 -40.04,-198.06 0,-70.14 13.42,-136.16 40.04,-198.07 26.62,-62.14 65.71,-117.66 117.29,-166.77 51.58,-48.66 109.98,-85.67 175.22,-111.02 65.24,-25.37 134.49,-38.16 207.73,-38.16 72.53,0 141.31,12.79 206.54,38.16 65,25.35 123.42,62.36 174.75,111.02 51.59,49.57 90.68,105.54 117.77,167.68 26.84,62.37 40.27,127.94 40.27,197.16zm2170.27 -356.39l0 844.35 -163.92 0 0 -844.35 -268.49 0 0 -135.69 699.49 0 0 135.69 -267.08 0zm2098.68 844.35l0 -980.04 563.82 0 0 135.69 -399.9 0 0 245.36 399.9 0 0 139.81 -399.9 0 0 316.63 399.9 0 0 142.55 -563.82 0zm2458.07 0l0 -980.04 163.92 0 0 837.49 367.4 0 0 142.55 -531.32 0z"/>
   <path class="fil2 str1" d="M8223.07 1788.88c-8.15,-24.45 -15.62,-54.32 -22.41,-89.64 -6.79,-35.31 -10.19,-66.55 -10.19,-93.71 0,-27.16 3.4,-44.82 10.19,-52.97 6.79,-8.15 18.33,0 34.63,24.45 89.64,190.13 193.53,328.67 311.69,415.59 118.16,86.92 243.79,145.32 376.89,175.2 146.68,35.31 308.29,45.5 484.86,30.56 176.55,-14.94 361.26,-38.7 554.12,-71.3 192.86,-32.6 389.11,-66.55 588.76,-101.86 199.64,-35.31 395.89,-54.33 588.75,-57.05 154.83,-190.14 318.49,-343.6 490.97,-460.41 172.48,-116.79 351.08,-179.28 535.79,-187.42 92.35,-2.71 190.82,10.19 295.39,38.71 104.58,28.51 203.72,69.27 297.44,122.23 93.71,52.96 175.2,115.44 244.47,187.42 69.26,71.98 113.4,148.72 132.42,230.21 40.74,160.26 56.35,322.56 46.85,486.89 -9.51,164.34 -37.35,323.92 -83.52,478.75 -46.18,154.83 -105.26,300.15 -177.25,435.96 -71.98,135.81 -150.75,256.01 -236.31,360.59 -85.56,104.57 -173.84,187.42 -264.84,248.54 -90.99,61.12 -177.23,91.68 -258.72,91.68 -119.52,0 -213.92,-30.56 -283.18,-91.68 -69.26,-61.12 -119.51,-141.92 -150.76,-242.43 -31.23,-100.5 -44.81,-212.55 -40.74,-336.14 4.07,-123.59 19.7,-246.5 46.86,-368.74 27.16,-122.23 61.12,-236.31 101.86,-342.25 40.74,-105.93 84.2,-190.13 130.38,-252.61 -51.6,-29.88 -103.22,-55.01 -154.83,-75.38 -51.61,-20.37 -105.94,-34.63 -162.97,-42.78 -127.67,157.55 -253.98,338.18 -378.92,541.9 -124.96,203.72 -230.89,423.74 -317.81,660.06 -67.91,187.42 -122.23,378.92 -162.98,574.5 -40.74,195.57 -67.9,386.38 -81.49,572.45 -13.58,186.07 -10.86,362.62 8.15,529.68 19.02,167.05 52.97,315.76 101.86,446.15 48.9,130.38 114.09,237.67 195.58,321.88 81.48,84.2 180.62,134.45 297.43,150.76 173.84,27.16 338.86,7.46 495.04,-59.08 156.18,-66.56 298.11,-162.31 425.78,-287.26 127.66,-124.94 241.75,-269.59 342.26,-433.92 100.5,-164.34 184.7,-329.35 252.6,-495.05 27.17,-29.88 54.33,-29.88 81.49,0 27.17,29.88 36.67,70.63 28.52,122.24 -54.32,181.99 -135.13,364.66 -242.42,548.01 -107.29,183.35 -231.57,347.68 -372.81,493 -141.25,145.32 -293.36,261.45 -456.34,348.37 -162.98,86.92 -327.31,120.87 -493.01,101.86 -149.39,-13.58 -279.1,-46.18 -389.11,-97.79 -110,-51.61 -206.43,-116.79 -289.28,-195.57 -82.84,-78.77 -152.79,-170.45 -209.83,-275.02 -57.05,-104.58 -107.3,-217.98 -150.75,-340.22 -84.21,-230.88 -129.03,-482.14 -134.46,-753.77 -5.44,-271.62 19.69,-548.01 75.38,-829.15 55.67,-281.13 136.49,-556.84 242.42,-827.11 105.94,-270.27 229.53,-518.13 370.77,-743.58 -133.09,35.31 -266.87,76.73 -401.33,124.27 -134.45,47.53 -268.91,91.68 -403.37,132.42 -134.45,40.74 -267.55,74.69 -399.29,101.86 -131.73,27.17 -258.73,36.67 -380.96,28.52 -111.37,-2.71 -219.34,-21.05 -323.91,-55.01 -104.58,-33.95 -203.73,-86.92 -297.44,-158.9 -93.71,-71.98 -179.28,-165.69 -256.69,-281.13 -77.41,-115.44 -144.64,-257.37 -201.68,-425.78zm4111.1 -97.79c-65.19,16.3 -143.29,57.05 -234.28,122.23 -91,65.2 -188.11,152.12 -291.32,260.77 67.9,27.16 133.1,58.4 195.57,93.71 76.06,51.61 129.02,97.78 158.91,138.54 19,24.44 35.31,53.64 48.89,87.59 13.58,33.96 16.29,64.51 8.15,91.67 -5.44,10.87 -15.63,18.34 -30.56,22.41 -14.94,4.08 -29.2,7.48 -42.78,10.19 -16.3,5.43 -30.56,16.97 -42.79,34.64 -12.22,17.65 -23.76,34.63 -34.63,50.92 -29.87,62.48 -57.72,137.85 -83.53,226.14 -25.8,88.28 -48.21,179.27 -67.22,272.98 -19.02,93.72 -31.24,184.71 -36.67,272.99 -5.44,88.28 0,164.34 16.29,228.17 16.3,63.83 44.15,109.33 83.53,136.49 39.39,27.17 95.75,25.8 169.09,-4.07 54.32,-21.73 110.01,-65.87 167.06,-132.42 57.03,-66.55 111.36,-149.4 162.97,-248.54 51.61,-99.14 100.5,-207.79 146.68,-325.96 46.18,-118.16 84.21,-239.71 114.08,-364.66 29.88,-124.95 48.89,-248.54 57.05,-370.77 8.15,-122.23 2.71,-234.96 -16.3,-338.18 -21.73,-114.08 -71.3,-193.54 -148.72,-238.36 -77.41,-44.81 -177.24,-53.64 -299.47,-26.48z"/>
   <path class="fil2 str1" d="M5475.99 8974.37c-2.92,-8.74 -5.59,-19.43 -8.01,-32.06 -2.43,-12.62 -3.65,-23.79 -3.65,-33.51 0,-9.71 1.22,-16.03 3.65,-18.94 2.42,-2.92 6.55,0 12.38,8.74 32.06,68 69.22,117.54 111.48,148.64 42.26,31.08 87.19,51.97 134.79,62.66 52.46,12.63 110.27,16.27 173.41,10.93 63.14,-5.35 129.2,-13.85 198.19,-25.51 68.97,-11.66 139.16,-23.79 210.56,-36.43 71.41,-12.63 141.6,-19.42 210.57,-20.4 55.38,-68 113.91,-122.89 175.6,-164.67 61.69,-41.77 125.56,-64.12 191.62,-67.02 33.03,-0.98 68.24,3.64 105.65,13.84 37.4,10.19 72.86,24.77 106.37,43.71 33.52,18.95 62.67,41.29 87.44,67.04 24.78,25.74 40.56,53.19 47.36,82.33 14.57,57.31 20.16,115.36 16.75,174.14 -3.39,58.77 -13.35,115.84 -29.86,171.22 -16.52,55.38 -37.65,107.35 -63.4,155.92 -25.73,48.58 -53.91,91.56 -84.51,128.97 -30.61,37.4 -62.18,67.03 -94.72,88.89 -32.55,21.86 -63.39,32.78 -92.53,32.78 -42.75,0 -76.51,-10.92 -101.28,-32.78 -24.78,-21.86 -42.74,-50.76 -53.92,-86.71 -11.17,-35.94 -16.03,-76.02 -14.57,-120.22 1.46,-44.2 7.04,-88.16 16.76,-131.88 9.71,-43.71 21.85,-84.52 36.43,-122.41 14.57,-37.88 30.11,-68 46.63,-90.34 -18.46,-10.69 -36.92,-19.68 -55.38,-26.96 -18.45,-7.28 -37.89,-12.38 -58.28,-15.3 -45.67,56.35 -90.84,120.95 -135.53,193.81 -44.69,72.86 -82.58,151.55 -113.66,236.07 -24.29,67.03 -43.72,135.52 -58.29,205.47 -14.58,69.95 -24.29,138.19 -29.14,204.74 -4.86,66.54 -3.89,129.69 2.91,189.44 6.8,59.75 18.94,112.93 36.43,159.57 17.49,46.62 40.8,85 69.94,115.11 29.15,30.12 64.61,48.09 106.39,53.92 62.17,9.72 121.19,2.67 177.04,-21.13 55.87,-23.8 106.63,-58.04 152.29,-102.73 45.66,-44.69 86.46,-96.42 122.4,-155.19 35.95,-58.78 66.06,-117.8 90.35,-177.06 9.71,-10.69 19.43,-10.69 29.15,0 9.71,10.69 13.11,25.26 10.2,43.72 -19.43,65.08 -48.34,130.42 -86.71,196 -38.37,65.57 -82.82,124.34 -133.33,176.32 -50.52,51.97 -104.93,93.5 -163.22,124.59 -58.28,31.09 -117.05,43.23 -176.32,36.43 -53.43,-4.86 -99.82,-16.51 -139.16,-34.98 -39.35,-18.45 -73.83,-41.77 -103.47,-69.94 -29.63,-28.17 -54.64,-60.96 -75.05,-98.37 -20.39,-37.39 -38.37,-77.95 -53.91,-121.67 -30.12,-82.57 -46.15,-172.44 -48.09,-269.58 -1.94,-97.16 7.04,-196 26.96,-296.55 19.91,-100.55 48.82,-199.15 86.71,-295.81 37.89,-96.67 82.09,-185.32 132.61,-265.95 -47.61,12.63 -95.46,27.45 -143.54,44.45 -48.09,17 -96.18,32.78 -144.26,47.36 -48.1,14.56 -95.7,26.71 -142.82,36.43 -47.11,9.71 -92.53,13.11 -136.25,10.19 -39.83,-0.96 -78.44,-7.53 -115.84,-19.67 -37.41,-12.14 -72.87,-31.08 -106.38,-56.83 -33.52,-25.75 -64.12,-59.25 -91.81,-100.54 -27.68,-41.29 -51.73,-92.06 -72.13,-152.29zm1470.34 -34.97c-23.31,5.83 -51.25,20.4 -83.79,43.72 -32.55,23.31 -67.28,54.4 -104.19,93.26 24.28,9.71 47.6,20.88 69.95,33.52 27.19,18.46 46.14,34.97 56.83,49.54 6.79,8.75 12.62,19.19 17.48,31.33 4.85,12.14 5.83,23.08 2.91,32.79 -1.94,3.88 -5.58,6.55 -10.92,8.01 -5.35,1.46 -10.45,2.68 -15.3,3.65 -5.84,1.94 -10.93,6.07 -15.31,12.39 -4.37,6.31 -8.5,12.38 -12.38,18.21 -10.69,22.34 -20.65,49.3 -29.88,80.87 -9.23,31.58 -17.24,64.12 -24.04,97.64 -6.8,33.51 -11.17,66.06 -13.12,97.63 -1.94,31.58 0,58.77 5.84,81.6 5.83,22.83 15.78,39.11 29.86,48.82 14.1,9.72 34.25,9.23 60.48,-1.46 19.44,-7.77 39.35,-23.55 59.75,-47.36 20.4,-23.79 39.83,-53.43 58.29,-88.89 18.45,-35.45 35.95,-74.31 52.45,-116.57 16.52,-42.27 30.12,-85.73 40.81,-130.42 10.69,-44.69 17.48,-88.89 20.4,-132.61 2.91,-43.71 0.97,-84.04 -5.82,-120.95 -7.78,-40.81 -25.51,-69.22 -53.19,-85.25 -27.69,-16.03 -63.4,-19.18 -107.11,-9.47z"/>
   <path class="fil2 str1" d="M8404.56 10110l-90 0 0 -55.16c-15.99,24.43 -34.82,42.71 -56.18,54.7 -21.51,11.98 -45.99,17.97 -73.73,17.97 -55.46,0 -99.33,-20.58 -131.17,-61.92 -31.98,-41.17 -47.97,-97.72 -47.97,-169.46 0,-68.07 16.26,-123.07 48.96,-164.87 32.69,-41.94 75.28,-62.83 127.78,-62.83 32.12,0 59.58,7.22 82.36,21.81 22.78,14.45 39.48,35.35 49.95,62.54l0 -69.6 90 0 0 426.82zm-87.45 -214.79c0,-44.1 -9.49,-78.52 -28.45,-103.09 -18.95,-24.75 -45.42,-37.03 -79.38,-37.03 -34.1,0 -60.85,12.75 -80.24,38.1 -19.52,25.34 -29.29,60.69 -29.29,105.7 0,45.33 9.34,80.35 28.17,104.94 18.81,24.73 45.42,37.03 79.67,37.03 32.4,0 58.72,-13.37 78.95,-40.1 20.38,-26.74 30.57,-61.92 30.57,-105.55zm1363.7 -90.35c-13.86,-16.43 -29.86,-29.04 -48.26,-37.64 -18.39,-8.76 -38.2,-13.06 -59.57,-13.06 -36.65,0 -66.08,12.91 -88.31,38.72 -22.06,25.81 -33.1,59.92 -33.1,102.63 0,44.4 11.17,79.28 33.4,104.63 22.21,25.35 52.92,37.95 92.26,37.95 21.79,0 41.31,-4.45 58.44,-13.21 17.12,-8.91 32.12,-22.28 45.14,-40.26l0 112.47c-16.56,10.14 -34.39,17.67 -53.35,22.74 -18.82,5.07 -39.05,7.68 -60.28,7.68 -61.7,0 -111.93,-21.35 -150.71,-63.91 -38.91,-42.57 -58.3,-97.87 -58.3,-165.63 0,-68.67 20.1,-124.15 60.29,-166.24 40.32,-42.25 92.83,-63.3 157.92,-63.3 20.37,0 39.2,2.15 56.32,6.6 17.12,4.31 33.25,11.07 48.11,20.14l0 109.69zm950.36 305.14l0 -697.84 84.62 0 0 341.08c17.97,-29.5 39.06,-51.01 63.39,-64.53 24.34,-13.53 53.92,-20.28 88.87,-20.28 29.3,0 54.2,5.07 74.86,15.05 20.52,10.15 36.65,25.05 48.25,44.87 6.94,11.68 11.89,25.35 15,41.03 2.98,15.51 4.53,42.86 4.53,81.89l0 258.73 -90.84 0 0 -219.1c0,-56.08 -6.23,-93.41 -18.83,-111.85 -12.59,-18.44 -34.95,-27.65 -67.07,-27.65 -20.94,0 -39.76,4.14 -56.18,12.59 -16.41,8.46 -29.43,20.28 -38.78,35.49 -6.65,10.3 -11.31,23.36 -13.86,39.49 -2.69,15.98 -3.96,41.48 -3.96,76.67l0 194.36 -90 0zm1736.28 -199.13l-314.13 0c2.25,39.96 13.16,71.14 32.82,93.58 19.52,22.43 45.7,33.64 78.39,33.64 29.01,0 53.21,-6.61 72.45,-19.82 19.4,-13.21 36.23,-34.57 50.66,-64.07l75.57 45.94c-22.08,43.03 -49.39,74.83 -82.08,95.87 -32.54,21.05 -70.89,31.5 -114.75,31.5 -63.12,0 -113.22,-20.9 -150.57,-62.53 -37.22,-41.79 -55.9,-97.41 -55.9,-167.01 0,-66.99 19.25,-121.84 57.88,-165.01 38.49,-43.02 88.02,-64.53 148.59,-64.53 63.25,0 112.63,19.66 148.01,58.99 35.37,39.19 53.06,94.35 53.06,165.02l0 18.43zm-93.39 -65.44c-3.54,-30.58 -14.3,-53.93 -32.26,-69.91 -17.98,-16.14 -42.6,-24.12 -73.73,-24.12 -29.57,0 -53.35,7.83 -71.32,23.35 -17.83,15.67 -30.43,39.17 -37.64,70.68l214.95 0z"/>
   <polygon class="fil1 str0" points="968.8,3754.68 1124.37,4212.23 1560.55,4232.32 1216.92,4538.07 1334.52,5005.14 966.58,4736.56 603.09,5005.14 719.31,4533.39 377.06,4232.32 816.82,4209.33 "/>
   <polygon class="fil1 str0" points="968.8,6053.05 1124.37,6510.6 1560.55,6530.69 1216.92,6836.44 1334.52,7303.51 966.58,7034.93 603.09,7303.51 719.31,6831.76 377.06,6530.69 816.82,6507.7 "/>
   <polygon class="fil1 str0" points="968.8,8351.43 1124.37,8808.98 1560.55,8829.07 1216.92,9134.82 1334.52,9601.89 966.58,9333.31 603.09,9601.89 719.31,9130.14 377.06,8829.07 816.82,8806.08 "/>
   <polygon class="fil1 str0" points="968.8,1456.31 1124.37,1913.86 1560.55,1933.95 1216.92,2239.7 1334.52,2706.77 966.58,2438.19 603.09,2706.77 719.31,2235.02 377.06,1933.95 816.82,1910.96 "/>
  </g>
 </g>
</svg>
