<?xml version="1.0" encoding="UTF-8"?>
<!DOCTYPE svg PUBLIC "-//W3C//DTD SVG 1.1//EN" "http://www.w3.org/Graphics/SVG/1.1/DTD/svg11.dtd">
<!-- Creator: CorelDRAW 2020 (64-Bit) -->
<svg xmlns="http://www.w3.org/2000/svg" xml:space="preserve" width="21cm" height="29.7cm" version="1.1" style="shape-rendering:geometricPrecision; text-rendering:geometricPrecision; image-rendering:optimizeQuality; fill-rule:evenodd; clip-rule:evenodd"
viewBox="0 0 21000 29700"
 xmlns:xlink="http://www.w3.org/1999/xlink"
 xmlns:xodm="http://www.corel.com/coreldraw/odm/2003">
 <defs>
  <style type="text/css">
   <![CDATA[
    .fil0 {fill:#8C8C29;fill-rule:nonzero}
   ]]>
  </style>
 </defs>
 <g id="Capa_x0020_1">
  <metadata id="CorelCorpID_0Corel-Layer"/>
  <g id="facebook-brands.svg">
   <path class="fil0" d="M18934.55 14928.96c0,-4654.01 -3770.77,-8424.77 -8424.77,-8424.77 -4654,0 -8424.77,3770.76 -8424.77,8424.77 0,4204.9 3080.82,7690.31 7108.4,8322.85l0 -5887.49 -2140.16 0 0 -2435.36 2140.16 0 0 -1856.17c0,-2111.28 1256.92,-3277.51 3182.04,-3277.51 921.97,0 1886.06,164.43 1886.06,164.43l0 2072.21 -1062.6 0c-1046.3,0 -1372.76,649.53 -1372.76,1315.7l0 1581.34 2336.51 0 -373.67 2435.36 -1962.84 0 0 5887.49c4027.58,-632.54 7108.4,-4117.95 7108.4,-8322.85z"/>
  </g>
 </g>
</svg>
