<?xml version="1.0" encoding="UTF-8"?>
<!DOCTYPE svg PUBLIC "-//W3C//DTD SVG 1.1//EN" "http://www.w3.org/Graphics/SVG/1.1/DTD/svg11.dtd">
<!-- Creator: CorelDRAW 2020 (64-Bit) -->
<svg xmlns="http://www.w3.org/2000/svg" xml:space="preserve" width="21cm" height="29.7cm" version="1.1" style="shape-rendering:geometricPrecision; text-rendering:geometricPrecision; image-rendering:optimizeQuality; fill-rule:evenodd; clip-rule:evenodd"
viewBox="0 0 21000 29700"
 xmlns:xlink="http://www.w3.org/1999/xlink"
 xmlns:xodm="http://www.corel.com/coreldraw/odm/2003">
 <defs>
  <style type="text/css">
   <![CDATA[
    .fil0 {fill:#8C8C29;fill-rule:nonzero}
   ]]>
  </style>
 </defs>
 <g id="Capa_x0020_1">
  <metadata id="CorelCorpID_0Corel-Layer"/>
  <g id="instagram-brands.svg">
   <path class="fil0" d="M10153.72 9696.74c-2518.41,0 -4549.77,2031.36 -4549.77,4549.77 0,2518.41 2031.36,4549.77 4549.77,4549.77 2518.41,0 4549.77,-2031.36 4549.77,-4549.77 0,-2518.41 -2031.36,-4549.77 -4549.77,-4549.77zm0 7507.72c-1627.46,0 -2957.94,-1326.52 -2957.94,-2957.94 0,-1631.42 1326.52,-2957.94 2957.94,-2957.94 1631.42,0 2957.94,1326.52 2957.94,2957.94 0,1631.42 -1330.48,2957.94 -2957.94,2957.94zm5797.1 -7693.83c0,590.01 -475.17,1061.22 -1061.22,1061.22 -590.01,0 -1061.22,-475.17 -1061.22,-1061.22 0,-586.04 475.18,-1061.22 1061.22,-1061.22 586.05,0 1061.22,475.18 1061.22,1061.22zm3013.38 1077.06c-67.32,-1421.56 -392.01,-2680.77 -1433.44,-3718.22 -1037.46,-1037.46 -2296.66,-1362.16 -3718.22,-1433.44 -1465.11,-83.16 -5856.49,-83.16 -7321.6,0 -1417.61,67.32 -2676.81,392.01 -3718.22,1429.48 -1041.42,1037.46 -1362.16,2296.66 -1433.44,3718.22 -83.16,1465.11 -83.16,5856.49 0,7321.6 67.32,1421.56 392.01,2680.77 1433.44,3718.22 1041.42,1037.46 2296.66,1362.16 3718.22,1433.44 1465.11,83.16 5856.49,83.16 7321.6,0 1421.56,-67.32 2680.77,-392.01 3718.22,-1433.44 1037.47,-1037.46 1362.16,-2296.66 1433.44,-3718.22 83.16,-1465.11 83.16,-5852.53 0,-7317.64zm-1892.77 8889.67c-308.87,776.12 -906.79,1374.04 -1686.86,1686.87 -1168.13,463.29 -3939.97,356.38 -5230.86,356.38 -1290.89,0 -4066.67,102.96 -5230.85,-356.38 -776.11,-308.87 -1374.04,-906.79 -1686.86,-1686.87 -463.3,-1168.13 -356.39,-3939.96 -356.39,-5230.85 0,-1290.89 -102.96,-4066.68 356.39,-5230.85 308.86,-776.12 906.78,-1374.04 1686.86,-1686.87 1168.13,-463.29 3939.96,-356.38 5230.85,-356.38 1290.89,0 4066.68,-102.96 5230.86,356.38 776.11,308.87 1374.03,906.79 1686.86,1686.87 463.29,1168.13 356.38,3939.96 356.38,5230.85 0,1290.89 106.91,4066.68 -356.38,5230.85z"/>
  </g>
 </g>
</svg>
