<?xml version="1.0" encoding="UTF-8"?>
<!DOCTYPE svg PUBLIC "-//W3C//DTD SVG 1.1//EN" "http://www.w3.org/Graphics/SVG/1.1/DTD/svg11.dtd">
<!-- Creator: CorelDRAW 2020 (64-Bit) -->
<svg xmlns="http://www.w3.org/2000/svg" xml:space="preserve" width="21cm" height="29.7cm" version="1.1" style="shape-rendering:geometricPrecision; text-rendering:geometricPrecision; image-rendering:optimizeQuality; fill-rule:evenodd; clip-rule:evenodd"
viewBox="0 0 21000 29700"
 xmlns:xlink="http://www.w3.org/1999/xlink"
 xmlns:xodm="http://www.corel.com/coreldraw/odm/2003">
 <defs>
  <style type="text/css">
   <![CDATA[
    .fil0 {fill:#FEFEFE;fill-rule:nonzero}
   ]]>
  </style>
 </defs>
 <g id="Capa_x0020_1">
  <metadata id="CorelCorpID_0Corel-Layer"/>
 </g>
 <g id="Capa_x0020_1_0">
  <metadata id="CorelCorpID_1Corel-Layer"/>
  <g id="facebook-brands.svg">
   <path class="fil0" d="M16665.89 15577.74c0,-3363.27 -2724.99,-6088.25 -6088.25,-6088.25 -3363.26,0 -6088.25,2724.98 -6088.25,6088.25 0,3038.72 2226.39,5557.49 5136.96,6014.6l0 -4254.66 -1546.61 0 0 -1759.94 1546.61 0 0 -1341.38c0,-1525.74 908.33,-2368.52 2299.54,-2368.52 666.27,0 1362.98,118.82 1362.98,118.82l0 1497.51 -767.9 0c-756.12,0 -992.04,469.39 -992.04,950.8l0 1142.77 1688.5 0 -270.03 1759.94 -1418.47 0 0 4254.66c2910.57,-457.11 5136.96,-2975.88 5136.96,-6014.6z"/>
  </g>
 </g>
</svg>
